HIERARCHY
ROOT Hips
{
	OFFSET 0.000000 0.000000 0.000000
	CHANNELS 6 Xposition Yposition Zposition Xrotation Yrotation Zrotation
	JOINT LeftUpLeg_virtual
	{
		OFFSET 0.000000 0.000000 0.000000
		CHANNELS 3 Xrotation Yrotation Zrotation
		JOINT LeftUpLeg
		{
			OFFSET 15.427100 -6.655098 0.678600
			CHANNELS 3 Xrotation Yrotation Zrotation
			JOINT LeftLeg
			{
				OFFSET 4.081073 -39.591068 13.024000
				CHANNELS 3 Xrotation Yrotation Zrotation
				JOINT LeftFoot
				{
					OFFSET -4.081074 -37.707932 -15.979700
					CHANNELS 3 Xrotation Yrotation Zrotation
					JOINT LeftToeBase
					{
						OFFSET 5.346399 -15.068900 20.645000
						CHANNELS 3 Xrotation Yrotation Zrotation
						JOINT LeftToe_End
						{
							OFFSET 2.754700 0.931300 11.300900
							CHANNELS 3 Xrotation Yrotation Zrotation
							End Site
							{
								OFFSET 0 0 0
							}
						}
					}
				}
			}
		}
	}
	JOINT RightUpLeg_virtual
	{
		OFFSET 0.000000 0.000000 0.000000
		CHANNELS 3 Xrotation Yrotation Zrotation
		JOINT RightUpLeg
		{
			OFFSET -15.569500 -6.655098 0.678600
			CHANNELS 3 Xrotation Yrotation Zrotation
			JOINT RightLeg
			{
				OFFSET -4.081825 -39.591045 13.023800
				CHANNELS 3 Xrotation Yrotation Zrotation
				JOINT RightFoot
				{
					OFFSET 4.081824 -37.707954 -15.979600
					CHANNELS 3 Xrotation Yrotation Zrotation
					JOINT RightToeBase
					{
						OFFSET -5.346400 -15.068900 20.645000
						CHANNELS 3 Xrotation Yrotation Zrotation
						JOINT RightToe_End
						{
							OFFSET -2.754700 0.931300 11.300900
							CHANNELS 3 Xrotation Yrotation Zrotation
							End Site
							{
								OFFSET 0 0 0
							}
						}
					}
				}
			}
		}
	}
	JOINT Spine_virtual
	{
		OFFSET 0.000000 0.000000 0.000000
		CHANNELS 3 Xrotation Yrotation Zrotation
		JOINT Spine
		{
			OFFSET -0.279200 12.230698 -2.892100
			CHANNELS 3 Xrotation Yrotation Zrotation
			JOINT Spine1
			{
				OFFSET -0.232667 10.192268 -1.242267
				CHANNELS 3 Xrotation Yrotation Zrotation
				JOINT Spine1_split
				{
					OFFSET -0.232667 10.192268 -1.242267
					CHANNELS 3 Xrotation Yrotation Zrotation
					JOINT Spine2
					{
						OFFSET -0.232667 10.192268 -1.242267
						CHANNELS 3 Xrotation Yrotation Zrotation
						JOINT Neck_virtual
						{
							OFFSET 0.000000 0.000000 0.000000
							CHANNELS 3 Xrotation Yrotation Zrotation
							JOINT Neck
							{
								OFFSET -0.418800 17.814194 8.416900
								CHANNELS 3 Xrotation Yrotation Zrotation
								JOINT Head
								{
									OFFSET 0.000000 7.031097 3.806800
									CHANNELS 3 Xrotation Yrotation Zrotation
									JOINT HeadTop_End
									{
										OFFSET 0.000000 24.646606 12.978600
										CHANNELS 3 Xrotation Yrotation Zrotation
										End Site
										{
											OFFSET 0 0 0
										}
									}
								}
							}
						}
						JOINT LeftShoulder_virtual
						{
							OFFSET 0.000000 0.000000 0.000000
							CHANNELS 3 Xrotation Yrotation Zrotation
							JOINT LeftShoulder
							{
								OFFSET 8.476499 7.247704 -3.868750
								CHANNELS 3 Xrotation Yrotation Zrotation
								JOINT LeftShoulder_split
								{
									OFFSET 8.476499 7.247704 -3.868750
									CHANNELS 3 Xrotation Yrotation Zrotation
									JOINT LeftArm
									{
										OFFSET 9.308998 -2.777710 0.208600
										CHANNELS 3 Xrotation Yrotation Zrotation
										JOINT LeftForeArm
										{
											OFFSET 29.972298 0.000000 0.000000
											CHANNELS 3 Xrotation Yrotation Zrotation
											JOINT LeftHand
											{
												OFFSET 26.026505 0.000000 0.000000
												CHANNELS 3 Xrotation Yrotation Zrotation
												End Site
												{
													OFFSET 0 0 0
												}
											}
										}
									}
								}
							}
						}
						JOINT RightShoulder_virtual
						{
							OFFSET 0.000000 0.000000 0.000000
							CHANNELS 3 Xrotation Yrotation Zrotation
							JOINT RightShoulder
							{
								OFFSET -7.570500 7.247704 -3.868750
								CHANNELS 3 Xrotation Yrotation Zrotation
								JOINT RightShoulder_split
								{
									OFFSET -7.570500 7.247704 -3.868750
									CHANNELS 3 Xrotation Yrotation Zrotation
									JOINT RightArm
									{
										OFFSET -9.308998 -2.777710 0.208500
										CHANNELS 3 Xrotation Yrotation Zrotation
										JOINT RightForeArm
										{
											OFFSET -29.972300 0.000000 0.000000
											CHANNELS 3 Xrotation Yrotation Zrotation
											JOINT RightHand
											{
												OFFSET -26.026505 0.000000 0.000000
												CHANNELS 3 Xrotation Yrotation Zrotation
												End Site
												{
													OFFSET 0 0 0
												}
											}
										}
									}
								}
							}
						}
					}
				}
			}
		}
	}
}
MOTION
Frames: 6
Frame Time: 0.03333333
0.545105 87.767319 0.246593 0.000000 0.000000 0.000000 -2.178126 -25.171938 0.212490 -23.407291 24.472008 12.177141 23.177538 8.180460 13.826441 -3.085175 0.743939 -14.703659 1.578743 -0.042872 -2.112381 0.000000 0.000000 0.000000 -2.711721 -23.818558 0.386910 -12.337910 -18.649480 -8.469135 24.486148 -1.457957 -13.260817 -14.408656 -1.625167 11.225212 -0.698720 0.480367 0.127128 0.000000 0.000000 0.000000 -1.237413 -26.208921 0.060736 4.520325 -1.691605 0.821519 0.657486 -0.605298 0.110843 1.040712 -0.598200 0.368229 0.000000 0.000000 0.000000 0.723211 -0.764623 0.229180 -2.543616 1.509561 3.291752 17.637114 23.796198 -12.686495 0.000000 0.000000 0.000000 1.396385 -0.704317 0.205508 -0.668411 2.457119 4.307858 -1.661648 -0.095958 -0.346547 -53.359921 -2.330089 -49.519780 -13.725391 -87.567875 -13.277207 0.000000 0.000000 0.000000 2.223472 -0.358494 0.063588 -1.103567 -10.958294 11.052318 0.963879 1.892110 0.410785 -64.106714 64.604574 79.531556 -20.736077 87.458858 20.756895 0.000000 0.000000 0.000000 
0.542280 87.737419 0.226269 0.000000 0.000000 0.000000 -2.136188 -25.240203 0.261222 -23.424873 24.533918 12.184955 23.204881 8.163395 13.799858 -3.111890 0.691077 -14.713223 1.572835 -0.039683 -2.106029 0.000000 0.000000 0.000000 -2.676631 -23.853684 0.436152 -12.468944 -18.844620 -8.493064 24.566631 -1.306195 -13.396708 -14.388890 -1.600001 11.267787 -0.740355 0.473711 0.116768 0.000000 0.000000 0.000000 -1.207133 -26.304097 0.102278 4.511775 -1.717087 0.829171 0.642277 -0.614701 0.106665 1.041671 -0.591864 0.356328 0.000000 0.000000 0.000000 0.706029 -0.775688 0.228688 -2.517444 1.534863 3.292783 17.654603 23.863011 -12.688651 0.000000 0.000000 0.000000 1.383779 -0.713887 0.204969 -0.663355 2.491128 4.233071 -1.687395 -0.136291 -0.353228 -53.323318 -2.396177 -49.448746 -13.161748 -87.464261 -12.712556 0.000000 0.000000 0.000000 2.207191 -0.371913 0.058929 -1.110511 -10.957807 11.017255 1.031008 1.897627 0.419897 -64.170508 64.631498 79.510348 -20.702831 87.472990 20.727855 0.000000 0.000000 0.000000 
0.547478 87.706924 0.212456 0.000000 0.000000 0.000000 -2.092523 -25.318850 0.311968 -23.454456 24.624078 12.213957 23.230856 8.128424 13.770679 -3.144347 0.622616 -14.718481 1.561347 -0.039397 -2.102249 0.000000 0.000000 0.000000 -2.639743 -23.899679 0.488856 -12.617102 -19.054377 -8.527136 24.650566 -1.141175 -13.538111 -14.368374 -1.574612 11.310889 -0.758406 0.468362 0.105232 0.000000 0.000000 0.000000 -1.168882 -26.418743 0.151342 4.507987 -1.746525 0.833158 0.622159 -0.626145 0.104991 1.042691 -0.583796 0.343153 0.000000 0.000000 0.000000 0.692254 -0.789519 0.228413 -2.489100 1.558681 3.299332 17.664867 23.923726 -12.683363 0.000000 0.000000 0.000000 1.367728 -0.727291 0.202944 -0.654766 2.512028 4.152615 -1.716439 -0.159188 -0.347076 -53.312338 -2.450796 -49.363037 -12.574440 -87.368495 -12.127959 0.000000 0.000000 0.000000 2.189984 -0.386353 0.057555 -1.115318 -10.936911 10.972607 1.079227 1.910651 0.416156 -64.204058 64.634374 79.473711 -20.654606 87.482388 20.686217 0.000000 0.000000 0.000000 
0.559300 87.679947 0.208588 0.000000 0.000000 0.000000 -2.051078 -25.399904 0.363097 -23.482436 24.731359 12.253890 23.247384 8.087725 13.742075 -3.182033 0.556031 -14.717272 1.556664 -0.041582 -2.103297 0.000000 0.000000 0.000000 -2.604670 -23.956656 0.542585 -12.765559 -19.251298 -8.570487 24.736949 -0.975821 -13.674488 -14.340262 -1.554721 11.359933 -0.781281 0.464368 0.090510 0.000000 0.000000 0.000000 -1.130900 -26.541396 0.205719 4.504085 -1.780073 0.836394 0.598524 -0.639413 0.106874 1.038696 -0.572503 0.328952 0.000000 0.000000 0.000000 0.682537 -0.805720 0.230008 -2.456378 1.579358 3.303897 17.674253 23.974669 -12.678666 0.000000 0.000000 0.000000 1.350685 -0.744071 0.201743 -0.643824 2.521011 4.068405 -1.744273 -0.168779 -0.327412 -53.342961 -2.492219 -49.266588 -11.911698 -87.271431 -11.470773 0.000000 0.000000 0.000000 2.174161 -0.401005 0.060593 -1.117645 -10.892680 10.907109 1.112084 1.927351 0.398214 -64.235586 64.620188 79.451554 -20.488442 87.471289 20.525531 0.000000 0.000000 0.000000 
0.571078 87.659782 0.216270 0.000000 0.000000 0.000000 -2.022186 -25.485382 0.410757 -23.489492 24.839042 12.291050 23.241322 8.056512 13.722963 -3.220735 0.509370 -14.711512 1.563753 -0.044827 -2.108937 0.000000 0.000000 0.000000 -2.577252 -24.023678 0.595200 -12.903489 -19.408128 -8.618784 24.816980 -0.824160 -13.792054 -14.303582 -1.545477 11.416794 -0.820168 0.461568 0.074294 0.000000 0.000000 0.000000 -1.100389 -26.662087 0.261089 4.496625 -1.817485 0.842236 0.572755 -0.654005 0.113650 1.029738 -0.561490 0.317513 0.000000 0.000000 0.000000 0.677670 -0.824010 0.234511 -2.414240 1.599148 3.298544 17.692591 24.013938 -12.684501 0.000000 0.000000 0.000000 1.334749 -0.763503 0.203978 -0.632512 2.519893 3.982933 -1.765618 -0.155314 -0.291374 -53.414979 -2.518313 -49.164777 -11.216774 -87.164893 -10.780219 0.000000 0.000000 0.000000 2.162436 -0.416138 0.068645 -1.117956 -10.823480 10.804673 1.129095 1.937892 0.378952 -64.302030 64.601384 79.483738 -20.120962 87.429830 20.161767 0.000000 0.000000 0.000000 
0.579287 87.650932 0.230808 0.000000 0.000000 0.000000 -2.004231 -25.567678 0.454647 -23.462951 24.935622 12.314642 23.209288 8.043136 13.717603 -3.251789 0.492076 -14.706202 1.576384 -0.048211 -2.117725 0.000000 0.000000 0.000000 -2.560578 -24.102515 0.642902 -13.016229 -19.504341 -8.669841 24.879823 -0.696621 -13.880998 -14.269850 -1.549552 11.465021 -0.853376 0.460150 0.059726 0.000000 0.000000 0.000000 -1.079823 -26.773577 0.315141 4.481682 -1.857275 0.853909 0.547500 -0.670210 0.126068 1.023721 -0.549139 0.315447 0.000000 0.000000 0.000000 0.676919 -0.844779 0.243282 -2.361816 1.619555 3.277595 17.722292 24.043769 -12.707528 0.000000 0.000000 0.000000 1.321691 -0.785668 0.211620 -0.622269 2.513416 3.894618 -1.783128 -0.121118 -0.242292 -53.525536 -2.533907 -49.067399 -10.470704 -87.036609 -10.036694 0.000000 0.000000 0.000000 2.155164 -0.432478 0.081759 -1.115970 -10.732777 10.659107 1.133328 1.940754 0.360671 -64.417071 64.584691 79.587133 -19.569988 87.353735 19.611483 0.000000 0.000000 0.000000 
